<?xml version="1.0" standalone="no"?>
<!DOCTYPE svg PUBLIC "-//W3C//DTD SVG 20010904//EN"
 "http://www.w3.org/TR/2001/REC-SVG-20010904/DTD/svg10.dtd">
<svg version="1.0" xmlns="http://www.w3.org/2000/svg"
 width="193.000000pt" height="193.000000pt" viewBox="0 0 193.000000 193.000000"
 preserveAspectRatio="xMidYMid meet">

<g transform="translate(0.000000,193.000000) scale(0.100000,-0.100000)"
fill="#ff0000" stroke="none">
<path d="M500 1634 c-107 -29 -177 -102 -206 -213 -13 -51 -15 -127 -12 -483
l3 -423 26 -55 c33 -70 79 -116 149 -149 l55 -26 405 -3 c512 -4 558 3 643 97
45 50 62 82 76 149 15 72 15 802 0 874 -23 106 -75 173 -169 217 l-55 26 -430
2 c-356 2 -439 0 -485 -13z m353 -200 c57 -19 141 -92 169 -148 15 -28 23 -66
26 -122 4 -72 1 -89 -20 -136 -111 -241 -445 -241 -556 0 -21 47 -24 64 -20
136 3 67 9 92 31 128 34 59 107 123 160 142 56 19 153 20 210 0z m563 -18 c27
-27 34 -42 34 -74 0 -115 -157 -152 -206 -48 -36 74 16 156 98 156 32 0 47 -7
74 -34z"/>
</g>
</svg>
